PathFileType	4	(X/Y/Z)	c:/Users/goper/Files/vsCode/490R/osim_files/C05/C05_Slow_04.trc
DataRate	CameraRate	NumFrames	NumMarkers	Units                	OrigDataRate	OrigDataStartFrame	OrigNumFrames
250.00	250.00	7	36	mm	250.0	1370	2739
                Frame#	Time	LPSIS			LASIS			LTH1			LTH2			LTH3			LTH4			LLFE			LMFE			LSH1			LSH2			LSH3			LSH4			LLMAL			LMMAL			LCAL			LMTP5			LTOE			LMTP1			RPSIS			RASIS			RTH1			RTH2			RTH3			RTH4			RLFE			RMFE			RSH1			RSH2			RSH3			RSH4			RLMAL			RMMAL			RCAL			RMTP1			RTOE			RMTP5		
		X1	Y1	Z1	X2	Y2	Z2	X3	Y3	Z3	X4	Y4	Z4	X5	Y5	Z5	X6	Y6	Z6	X7	Y7	Z7	X8	Y8	Z8	X9	Y9	Z9	X10	Y10	Z10	X11	Y11	Z11	X12	Y12	Z12	X13	Y13	Z13	X14	Y14	Z14	X15	Y15	Z15	X16	Y16	Z16	X17	Y17	Z17	X18	Y18	Z18	X19	Y19	Z19	X20	Y20	Z20	X21	Y21	Z21	X22	Y22	Z22	X23	Y23	Z23	X24	Y24	Z24	X25	Y25	Z25	X26	Y26	Z26	X27	Y27	Z27	X28	Y28	Z28	X29	Y29	Z29	X30	Y30	Z30	X31	Y31	Z31	X32	Y32	Z32	X33	Y33	Z33	X34	Y34	Z34	X35	Y35	Z35	X36	Y36	Z36

1370	5.47600	-535.49890	1045.82312	330.65381	-739.32550	1018.59906	373.16556	-671.94250	697.21832	422.00916	-687.92480	637.56946	408.48639	-745.78088	712.43207	410.09277	-751.22479	651.90637	398.18155	-736.04089	541.00800	377.47253	-721.04431	538.15045	262.36295	-641.47614	361.43265	381.16681	-644.81488	317.64999	373.77475	-705.21661	358.80954	388.23257	-698.43518	316.52716	379.01718	-662.34930	96.41062	330.69223	-689.99670	113.80402	249.34335	-606.27820	70.02713	276.34097	-804.09790	41.66615	357.11688	-841.05109	69.53091	296.40781	-828.47076	54.15455	248.60756	-531.57135	1043.67664	221.34756	-718.18365	1007.22125	143.71141	-739.04315	673.84351	90.48090	-755.91632	614.85913	97.62517	-668.75317	649.76459	106.29459	-696.22632	593.52722	113.45435	0.00000	0.00000	0.00000	-755.78186	515.45618	114.59749	-602.92706	463.84055	111.13067	-569.13678	429.38776	114.07305	-639.17645	414.84232	104.43800	-600.98029	388.05304	108.97751	-396.60269	267.18341	145.52710	-426.90601	251.83757	227.78693	-337.51932	297.32965	200.70384	-446.04346	108.80541	216.14764	-473.14905	109.52061	165.65433	-411.79028	127.22987	109.71106
1371	5.48000	-539.31702	1046.27783	330.69437	-743.10413	1018.80408	373.57526	-673.93488	697.52307	422.03082	-689.49792	637.75665	408.57260	-748.44318	711.87750	410.45609	-753.03015	651.67401	398.52243	-737.35095	540.96643	377.80933	-722.36731	538.07739	262.53723	-642.13080	361.59668	381.30795	-645.91748	318.02609	373.49768	-705.82812	358.84116	388.39075	-699.00421	316.57938	379.15817	-662.40509	96.51038	330.64700	-690.14081	113.85664	249.32433	-606.31128	70.09085	276.30814	-804.10077	41.65926	357.14590	-841.11584	69.45104	296.43576	-828.53998	54.12540	248.64212	-535.50214	1044.21057	221.33421	-722.43549	1008.11450	144.07561	-745.74103	675.32184	90.25359	-763.10596	616.50720	97.37074	-675.81305	650.72461	105.91475	-703.56232	594.75500	113.17165	0.00000	0.00000	0.00000	-763.89972	517.22528	114.26653	-611.42957	464.46188	110.83809	-577.90881	429.73447	113.81495	-648.16150	415.71271	104.13796	-609.97888	388.65820	108.67349	-406.62781	266.38391	145.21947	-436.87448	251.11015	227.24574	-347.05325	295.82446	200.56410	-457.42581	108.36008	215.49310	-484.42581	109.55161	165.11240	-423.16809	126.73161	108.99960
1372	5.48400	-543.10748	1046.73499	330.72522	-746.89160	1019.12512	373.92407	-675.75568	697.84296	422.11697	-691.14612	637.90863	408.60550	-750.54694	711.71417	410.79593	-754.89789	651.50989	398.63858	-738.44678	540.81567	378.08054	-723.64453	538.14264	262.79666	-642.56946	361.79486	381.58542	-646.37891	317.98837	373.33478	-706.64240	358.82074	388.56097	-699.50067	316.65228	379.31870	-662.43909	96.55247	330.61093	-690.21021	113.90258	249.30945	-606.30182	70.16353	276.27103	-804.07733	41.61044	357.14603	-841.14685	69.37951	296.45950	-828.56763	54.14235	248.65932	-539.30286	1044.71106	221.35542	-726.14911	1008.74280	144.54498	-752.37402	676.94214	89.78268	-770.19019	618.18860	97.02282	-682.64441	651.68903	105.55771	-710.91486	595.96069	112.75828	0.00000	0.00000	0.00000	-771.92310	518.99371	113.96079	-619.92944	464.90640	110.56371	-586.66827	429.97205	113.55005	-656.95496	416.54492	103.90739	-619.12488	389.17282	108.34330	-416.61609	265.42331	144.89093	-447.09479	250.28836	227.04599	-356.85168	293.82193	199.89772	-469.20761	107.78539	214.77805	-496.25201	109.43829	164.37051	-434.80536	126.00482	108.35324
1373	5.48800	-546.96429	1047.08374	330.80429	-750.69220	1019.44440	374.29407	-677.70416	698.14117	422.15906	-692.70209	638.16528	408.76157	-752.09460	711.87598	411.15103	-756.50739	651.30963	399.28250	-739.71747	540.67303	378.45102	-725.23279	538.08423	262.98767	-643.47839	361.87393	381.72928	-646.96588	318.11111	373.53159	-707.37201	358.82727	388.75955	-700.06506	316.66934	379.50433	-662.45868	96.62315	330.61353	-690.34668	114.03465	249.23415	-606.28162	70.20020	276.26868	-804.09790	41.57048	357.18692	-841.17517	69.28538	296.47440	-828.57935	54.10468	248.67986	-543.23114	1045.13159	221.39841	-730.20227	1009.48389	144.97020	-758.98737	678.41486	89.55253	-777.25543	619.91095	96.75464	-689.48041	652.61078	105.21201	-718.22418	597.10913	112.41099	0.00000	0.00000	0.00000	-779.89032	520.63965	113.68729	-628.79962	465.59161	109.90511	-595.32617	430.14752	113.28811	-666.30872	418.02036	103.48888	-628.15009	389.61597	108.07039	-426.81650	264.25494	144.53397	-457.08771	249.39633	226.53560	-366.64227	291.84332	199.51741	-481.02734	107.10719	214.08163	-508.14035	109.13126	163.72267	-446.52771	125.18271	107.68344
1374	5.49200	-550.71259	1047.50659	330.82568	-754.46643	1019.67242	374.68951	-679.47144	698.50317	421.76773	-694.35358	638.37164	408.84641	-754.09552	711.66113	411.49274	-758.37964	651.14380	399.42828	-740.81543	540.61218	378.79898	-727.12115	538.02380	264.29102	-644.17499	362.01865	381.96390	-647.51837	318.28244	373.76605	-707.97357	358.76767	388.89188	-700.63513	316.65070	379.75659	-662.51611	96.67139	330.61398	-690.43854	114.06870	249.23894	-606.36169	70.23112	276.24057	-804.10620	41.53394	357.21219	-841.22437	69.20333	296.50891	-828.53552	54.14089	248.62039	-547.10034	1045.59778	221.43739	-734.14142	1010.17163	145.22775	-765.58557	679.90021	89.26879	-784.36908	621.58228	96.44597	-696.20679	653.58533	104.82948	-725.51086	598.27655	112.10600	0.00000	0.00000	0.00000	-787.75262	522.38727	113.53490	-636.90656	465.83566	109.88271	-604.04675	430.16092	113.06365	-674.83997	418.35376	103.41521	-637.18085	389.94043	107.82652	-437.03674	262.90430	144.12535	-467.46564	248.28244	226.12019	-376.55463	289.61771	199.10945	-493.15695	106.33643	213.38052	-520.10175	108.74854	163.13757	-457.95923	124.14803	107.45867
1375	5.49600	-554.59985	1047.83777	330.82739	-758.16370	1019.87610	375.06799	-681.64850	698.75507	421.66006	-695.84576	638.60034	408.99969	-756.38080	711.30896	411.91949	-759.86664	650.86108	400.10208	-742.07458	540.51678	379.15274	-728.41150	537.88269	264.57095	-644.93475	362.18036	382.16757	-648.28711	318.55249	374.15955	-708.70215	358.75626	389.10480	-701.27393	316.65067	379.90131	-662.61188	96.72493	330.61069	-690.54938	114.11070	249.26520	-606.42145	70.25883	276.24854	-804.16351	41.50208	357.26471	-841.29187	69.10265	296.54721	-828.55817	54.09674	248.63818	-551.06311	1045.93994	221.42703	-737.95062	1010.82672	145.63704	-772.09717	681.49805	89.00383	-791.49335	623.26526	96.22702	-703.00494	654.47974	104.40682	-732.69720	599.51715	111.70861	0.00000	0.00000	0.00000	-795.70026	524.11395	113.30590	-645.15674	466.11237	109.68918	-612.60242	430.10767	112.91468	-683.48853	418.99539	103.16283	-646.08875	390.18866	107.73183	-447.38620	261.40100	143.68370	-477.86935	247.02693	225.69327	-386.47714	287.25607	198.61980	-505.39532	105.48192	212.71315	-531.89954	108.35600	162.39218	-470.36588	122.79572	106.38087
1376	5.50000	-558.43195	1048.16638	330.85678	-762.06305	1020.11566	375.52051	-683.75317	698.81610	421.55243	-697.50098	638.77875	409.10214	-757.84869	711.50873	412.38626	-761.64185	650.69031	400.60815	-743.23737	540.37921	379.46237	-729.59497	537.73840	264.82535	-645.56329	362.37268	382.33868	-648.82166	318.80804	374.18503	-709.46533	358.78537	389.31720	-701.99139	316.72104	379.92105	-662.67743	96.78912	330.61578	-690.65979	114.14129	249.30586	-606.46423	70.32623	276.22961	-804.20447	41.46674	357.28925	-841.36725	69.02439	296.56564	-828.56384	54.09525	248.62740	-554.91235	1046.34583	221.46992	-742.11694	1011.50732	146.03775	-778.56824	682.98895	88.78682	-798.44995	624.94196	95.98531	-709.73724	655.36731	104.00745	-739.85962	600.65448	111.30076	0.00000	0.00000	0.00000	-803.47589	525.79620	113.10880	-653.43127	466.34888	109.40922	-621.16345	429.98645	112.73324	-692.28021	419.62302	102.94282	-655.42560	390.19772	107.13094	-457.75638	259.71918	143.20929	-488.33701	245.65021	225.23845	-396.73227	284.65710	197.79749	-517.85950	104.47855	212.05124	-544.86639	107.89153	161.85269	-482.73050	121.50816	105.68185
